<svg width="18" height="16" fill="none" xmlns="http://www.w3.org/2000/svg"><path d="M8.684 14.244l.371-.284a57.77 57.77 0 0 0 1.454-1.142h0c1.826-1.521 3.309-2.761 4.326-3.943h0C15.94 7.59 16.368 6.5 16.368 5.392c0-1.068-.37-2.038-1.01-2.749A3.446 3.446 0 0 0 12.755 1.5c-.632 0-1.453.343-2.214.792a10.974 10.974 0 0 0-1.203.825l-.013.012-.002.001h0l-.639.53-.638-.53h0l-.002-.001-.014-.012a9.343 9.343 0 0 0-.315-.24c-.219-.16-.528-.373-.888-.585-.76-.449-1.582-.792-2.214-.792-1.023 0-1.94.407-2.603 1.143l6.674 11.601zm0 0l-.371-.284a58.095 58.095 0 0 1-1.453-1.142h0c-1.826-1.521-3.31-2.761-4.326-3.943h0C1.429 7.59 1 6.499 1 5.392c0-1.068.37-2.038 1.01-2.749l6.674 11.601z" stroke="#00C7B1" stroke-width="2"/></svg>