<svg width="7" height="13" fill="none" xmlns="http://www.w3.org/2000/svg"><path fill-rule="evenodd" clip-rule="evenodd" d="M2.849 2.437a.903.903 0 0 0 .662-.306.94.94 0 0 0 .255-.688.967.967 0 0 0-.293-.675.878.878 0 0 0-.675-.267.903.903 0 0 0-.662.305.987.987 0 0 0-.268.688.9.9 0 0 0 .293.675.917.917 0 0 0 .688.268zM6.072 5.66L4.67 4.895 3.524 3.061c-.22-.272-.492-.408-.815-.408-.221 0-.433.094-.637.28L.339 4.693a.56.56 0 0 0-.102.229L.008 6.883v.05c0 .12.043.221.128.306a.417.417 0 0 0 .305.128.377.377 0 0 0 .293-.128.55.55 0 0 0 .14-.28l.179-1.681.611-.612-.56 4.688-.994 2.217a.892.892 0 0 0-.05.28.64.64 0 0 0 .19.471.563.563 0 0 0 .472.166c.254 0 .441-.12.56-.357l1.07-2.395a.29.29 0 0 1 .026-.089c.017-.042.034-.08.05-.115a.226.226 0 0 0 .026-.101l.127-1.147 1.096 3.77c.119.306.331.45.637.434.17 0 .318-.064.446-.191a.64.64 0 0 0 .19-.472.208.208 0 0 0-.012-.063.21.21 0 0 1-.013-.064L3.397 6.475l.178-1.707.433.688a.455.455 0 0 0 .128.127l1.503.841c.102.034.17.051.204.051a.4.4 0 0 0 .305-.14.46.46 0 0 0 .128-.319.4.4 0 0 0-.204-.356z" fill="#3E4757"/></svg>