<svg width="7" height="13" viewBox="0 0 7 13" fill="none" xmlns="http://www.w3.org/2000/svg">
<path fill-rule="evenodd" clip-rule="evenodd" d="M2.84893 2.43686C3.11219 2.42837 3.33301 2.32646 3.51135 2.13113C3.6897 1.93579 3.77462 1.70649 3.76613 1.44323C3.75765 1.17992 3.65997 0.954871 3.47314 0.768069C3.28631 0.581241 3.06124 0.492069 2.79798 0.500553C2.53472 0.509037 2.3139 0.610948 2.13556 0.806285C1.95721 1.00162 1.86804 1.23092 1.86804 1.49418C1.86804 1.75744 1.9657 1.98251 2.16104 2.16934C2.35637 2.35617 2.58567 2.44534 2.84893 2.43686Z" fill="#3E4757"/>
<path fill-rule="evenodd" clip-rule="evenodd" d="M6.07187 5.65981L4.6706 4.89548L3.5241 3.06109C3.30329 2.78932 3.03154 2.65344 2.70882 2.65344C2.488 2.65344 2.27569 2.74687 2.07187 2.9337L0.339389 4.69166C0.288433 4.75961 0.254472 4.83604 0.237478 4.92096L0.00817871 6.88274V6.9337C0.00817871 7.05258 0.0506501 7.15449 0.135567 7.23943C0.220484 7.32432 0.322395 7.36682 0.4413 7.36682C0.560204 7.36682 0.65786 7.32432 0.734293 7.23943C0.810726 7.15449 0.857427 7.06109 0.874421 6.95917L1.05276 5.27765L1.66423 4.66618L1.10372 9.35408L0.11009 11.5707C0.0761278 11.6726 0.0591341 11.7658 0.0591341 11.851C0.0591341 12.0375 0.122828 12.1949 0.250217 12.3223C0.377605 12.4497 0.534727 12.5048 0.721555 12.4879C0.976332 12.4879 1.16316 12.3687 1.28206 12.1312L2.35213 9.73627C2.35213 9.7192 2.36061 9.68952 2.37761 9.6471C2.39462 9.60455 2.41162 9.56633 2.42856 9.53245C2.44555 9.49844 2.45404 9.46442 2.45404 9.43054L2.58143 8.28402L3.67697 12.0548C3.79587 12.3605 4.00818 12.5049 4.31391 12.4879C4.48377 12.4879 4.63238 12.4242 4.75977 12.2968C4.88716 12.1694 4.95085 12.012 4.95085 11.8255C4.95085 11.8082 4.9466 11.7873 4.93812 11.7618C4.92963 11.7363 4.92538 11.715 4.92538 11.6981L3.39671 6.4751L3.57506 4.76809L4.00818 5.45599C4.04214 5.50695 4.08461 5.54942 4.13557 5.58338L5.63875 6.42414C5.74066 6.4581 5.80861 6.4751 5.84257 6.4751C5.96148 6.4751 6.06339 6.4284 6.14831 6.33497C6.23322 6.24152 6.27569 6.13538 6.27569 6.0165C6.27569 5.86363 6.20775 5.74473 6.07187 5.65981Z" fill="#3E4757"/>
</svg>
