<svg width="7" height="11" viewBox="0 0 7 11" fill="none" xmlns="http://www.w3.org/2000/svg">
<path fill-rule="evenodd" clip-rule="evenodd" d="M6.07187 3.65981L4.6706 2.89548L3.5241 1.06109C3.30329 0.789315 3.03154 0.653442 2.70882 0.653442C2.488 0.653442 2.27569 0.746869 2.07187 0.933697L0.339389 2.69166C0.288433 2.75961 0.254472 2.83604 0.237478 2.92096L0.00817871 4.88274V4.9337C0.00817871 5.05258 0.0506501 5.15449 0.135567 5.23943C0.220484 5.32432 0.322395 5.36682 0.4413 5.36682C0.560204 5.36682 0.65786 5.32432 0.734293 5.23943C0.810726 5.15449 0.857427 5.06109 0.874421 4.95917L1.05276 3.27765L1.66423 2.66618L1.10372 7.35408L0.11009 9.57067C0.0761278 9.67258 0.0591341 9.76577 0.0591341 9.85097C0.0591341 10.0375 0.122828 10.1949 0.250217 10.3223C0.377605 10.4497 0.534727 10.5048 0.721555 10.4879C0.976332 10.4879 1.16316 10.3687 1.28206 10.1312L2.35213 7.73627C2.35213 7.7192 2.36061 7.68952 2.37761 7.6471C2.39462 7.60455 2.41162 7.56633 2.42856 7.53245C2.44555 7.49844 2.45404 7.46442 2.45404 7.43054L2.58143 6.28402L3.67697 10.0548C3.79587 10.3605 4.00818 10.5049 4.31391 10.4879C4.48377 10.4879 4.63238 10.4242 4.75977 10.2968C4.88716 10.1694 4.95085 10.012 4.95085 9.82549C4.95085 9.80822 4.9466 9.78728 4.93812 9.7618C4.92963 9.73632 4.92538 9.71502 4.92538 9.69805L3.39671 4.4751L3.57506 2.76809L4.00818 3.45599C4.04214 3.50695 4.08461 3.54942 4.13557 3.58338L5.63875 4.42414C5.74066 4.4581 5.80861 4.4751 5.84257 4.4751C5.96148 4.4751 6.06339 4.4284 6.14831 4.33497C6.23322 4.24152 6.27569 4.13538 6.27569 4.0165C6.27569 3.86363 6.20775 3.74473 6.07187 3.65981Z" fill="#3E4757"/>
</svg>
